<svg xmlns="http://www.w3.org/2000/svg" xml:space="preserve" width="32" height="32" viewBox="0 0 91.281 91.281"><g style="display:inline"><path d="m48.9 46.746-.388-22.49c0-2.757 3.49-3.662 3.49-3.662l30.534-1.362c3.829.178 4.185 3.205 4.185 3.205l1.938 77.844c-.23 1.956-2.531 2.589-2.531 2.589l-19.674.638-5.16-1.963s-3.516-1.05-5.143 1.102c0 0-1.994 2.676-7.137 5.563 0 0-1.154-1.995 5.72-8.502 0 0 1.103.368 2.205-.787 0 0 4.303-2.834 7.504-4.04 0 0 5.615-.368 9.394-8.922 0 0-.263-5.825-4.199-5.563 0 0-10.233 10.653-19.469 6.665 0 0 6.875-7.347 12.437-11.178 0 0 6.245-5.667 9.079-10.443 0 0 3.621-6.297-4.25-7.294 0 0-14.642 16.058-22.514 14.956l-1.732-2.467s1.522-7.609 6.718-8.868l9.393-8.974s6.298-5.668 0-12.123c0 0-1.574-1.207-3.568.368z" style="display:inline;fill:#f76aa7;fill-opacity:1;stroke:#000;stroke-width:.264583;stroke-opacity:1" transform="translate(-7.67 -19.006)"/><path d="M61.294 101.545s-3.516-1.05-5.143 1.102c0 0-1.994 2.676-7.137 5.563 0 0-1.154-1.994 5.72-8.502 0 0 1.103.368 2.205-.787 0 0 4.303-2.834 7.504-4.04 0 0 5.615-.368 9.394-8.922 0 0-.263-5.825-4.199-5.563 0 0-10.233 10.653-19.469 6.665 0 0 6.875-7.347 12.437-11.178 0 0 6.245-5.667 9.079-10.443 0 0 3.621-6.297-4.25-7.294 0 0-14.642 16.058-22.514 14.956l-1.732-2.467s1.522-7.609 6.718-8.868l9.393-8.974s6.298-5.668 0-12.123c0 0-1.574-1.207-3.568.368l-6.774 5.933-.704 1.11s-5.946 7.023-15.467 10.125c0 0-.991.345-1.293 8.444 0 0 1.077 5.343-4.308 12.408l-.086 6.98s-.517 4.74-6.721 8.703l-2.413 3.145 1.206 11.934 62.18.242s.115-1.899-2.761-2.417c0 0-4.028-.057-11.85-4.11z" style="display:inline;fill:#38d7ff;fill-opacity:1;stroke:#000;stroke-width:.264583;stroke-opacity:1" transform="translate(-7.67 -19.006)"/></g></svg>