<?xml version="1.0" encoding="UTF-8" standalone="no"?>
<svg
   version="1.1"
   viewBox="0.00 0.00 844.00 1322.00"
   id="svg33031"
   sodipodi:docname="logo-icon.svg"
   xml:space="preserve"
   inkscape:version="1.2.2 (b0a84865, 2022-12-01)"
   xmlns:inkscape="http://www.inkscape.org/namespaces/inkscape"
   xmlns:sodipodi="http://sodipodi.sourceforge.net/DTD/sodipodi-0.dtd"
   xmlns:xlink="http://www.w3.org/1999/xlink"
   xmlns="http://www.w3.org/2000/svg"
   xmlns:svg="http://www.w3.org/2000/svg"><defs
     id="defs33035"><linearGradient
       inkscape:collect="always"
       id="linearGradient55819"><stop
         style="stop-color:#f4689f;stop-opacity:0.99215686"
         offset="0"
         id="stop55815" /><stop
         style="stop-color:#cc70c6;stop-opacity:1;"
         offset="0.4178082"
         id="stop55817" /></linearGradient><inkscape:path-effect
       effect="fillet_chamfer"
       id="path-effect48353"
       is_visible="true"
       lpeversion="1"
       nodesatellites_param="F,0,0,1,0,35.633748,0,1 @ F,0,0,1,0,33.885094,0,1 @ F,0,0,1,0,37.382402,0,1 @ F,0,0,1,0,37.382402,0,1"
       unit="px"
       method="auto"
       mode="F"
       radius="47"
       chamfer_steps="1"
       flexible="false"
       use_knot_distance="true"
       apply_no_radius="true"
       apply_with_radius="true"
       only_selected="false"
       hide_knots="false" /><inkscape:path-effect
       effect="fillet_chamfer"
       id="path-effect47622"
       is_visible="true"
       lpeversion="1"
       nodesatellites_param="F,0,0,1,0,60,0,1 @ F,0,0,1,0,60,0,1 @ F,0,0,1,0,60,0,1 @ F,0,0,1,0,60,0,1"
       unit="px"
       method="auto"
       mode="F"
       radius="60"
       chamfer_steps="1"
       flexible="false"
       use_knot_distance="true"
       apply_no_radius="true"
       apply_with_radius="true"
       only_selected="false"
       hide_knots="false" /><inkscape:path-effect
       effect="fillet_chamfer"
       id="path-effect47545"
       is_visible="true"
       lpeversion="1"
       nodesatellites_param="F,0,0,1,0,94,0,1 @ F,0,0,1,0,94,0,1 @ F,0,0,1,0,94,0,1 @ F,0,0,1,0,94,0,1 @ F,0,0,1,0,94,0,1"
       unit="px"
       method="auto"
       mode="F"
       radius="94"
       chamfer_steps="1"
       flexible="false"
       use_knot_distance="true"
       apply_no_radius="true"
       apply_with_radius="true"
       only_selected="false"
       hide_knots="false" /><inkscape:path-effect
       effect="fillet_chamfer"
       id="path-effect47497"
       is_visible="true"
       lpeversion="1"
       nodesatellites_param="C,0,0,1,0,63,0,1 @ C,0,0,1,0,63,0,1 @ C,0,0,1,0,63,0,1 @ C,0,0,1,0,63,0,1 @ C,0,0,1,0,63,0,1 @ C,0,0,1,0,63,0,1 @ C,0,0,1,0,63,0,1 @ C,0,0,1,0,63,0,1"
       unit="px"
       method="auto"
       mode="F"
       radius="63"
       chamfer_steps="1"
       flexible="false"
       use_knot_distance="true"
       apply_no_radius="true"
       apply_with_radius="true"
       only_selected="false"
       hide_knots="false" /><linearGradient
       inkscape:collect="always"
       xlink:href="#linearGradient55819"
       id="linearGradient55821"
       x1="399.45425"
       y1="251.4482"
       x2="424.49353"
       y2="372.93362"
       gradientUnits="userSpaceOnUse" /></defs><sodipodi:namedview
     id="namedview33033"
     pagecolor="#9a9a9a"
     bordercolor="#666666"
     borderopacity="1.0"
     inkscape:showpageshadow="2"
     inkscape:pageopacity="0"
     inkscape:pagecheckerboard="0"
     inkscape:deskcolor="#d1d1d1"
     showgrid="false"
     inkscape:zoom="0.43626634"
     inkscape:cx="71.05751"
     inkscape:cy="530.63915"
     inkscape:window-width="1552"
     inkscape:window-height="1037"
     inkscape:window-x="0"
     inkscape:window-y="25"
     inkscape:window-maximized="0"
     inkscape:current-layer="svg33031" /><clipPath
     id="clipping-path-0"><path
       d="   M 0.00 0.00   L 844.00 0.00   L 844.00 1322.00   L 0.00 1322.00   L 0.00 0.00   Z"
       id="path32944" /></clipPath><g
     id="g59921"
     transform="rotate(-5.4511091,323.24281,285.24971)"><path
       style="fill:url(#linearGradient55821);fill-opacity:1;stroke:#000000;stroke-width:7.50564;stroke-dasharray:none;stroke-opacity:1"
       id="rect47578"
       width="469.09265"
       height="855.89508"
       x="180.86583"
       y="36.673176"
       inkscape:path-effect="#path-effect47622"
       d="m 240.86583,36.673176 h 349.09265 a 60,60 45 0 1 60,60 l 0,735.895084 a 60,60 135 0 1 -60,60 H 240.86583 a 60,60 45 0 1 -60,-60 V 96.673176 a 60,60 135 0 1 60,-60 z"
       sodipodi:type="rect" /><path
       fill="#000000"
       d="m 293.18836,1314.8414 c 1.15744,-34.6305 33.86422,-79.3883 50.0861,-114.8178 1.5382,-13.1196 47.43808,-70.1285 9.69297,-42.1294 8.31706,-16.0753 50.58315,-49.8999 64.73007,-78.1471 31.99253,-42.5624 48.61646,-95.0026 52.50498,-147.73309 19.99406,-45.07261 -49.54509,-47.53486 -76.03386,-63.24976 -1.51362,0.85601 -52.34342,-32.6678 -51.3751,-1.0251 -1.63455,45.06653 24.30764,89.82882 16.07069,135.34585 -5.3721,-71.72051 -46.20639,-139.27827 -33.51143,-212.72753 6.62681,-26.68416 -41.82528,18.89439 -10.62682,-9.8151 42.88875,-38.9654 79.25796,-84.69142 118.39983,-126.80815 19.46972,2.55181 67.83226,3.76464 96.88404,11.84663 11.03282,1.3758 51.38382,9.2687 58.3903,10.76712 24.73345,4.70475 84.03159,2.07095 93.61808,-39.54163 5.92771,-28.93849 -62.92222,-7.37878 -82.84438,-27.08034 -36.62055,-15.21644 -72.33639,-29.67585 -112.38475,-32.83041 -39.29987,-3.79758 -85.61892,-32.98393 -120.83582,-3.74719 -44.93348,41.78798 -81.7728,100.65648 -144.5853,116.90404 -52.67009,5.4588 72.76715,-31.19345 38.42617,-26.99913 51.18852,-24.47875 77.3564,-81.19784 124.82491,-107.57566 28.05888,-14.34538 52.74598,8.91312 76.60042,-7.76226 45.39778,-36.95728 98.07002,-69.77905 156.33437,-82.41647 40.32482,-16.5022 54.47338,-80.2698 38.84691,-104.31253 -19.32523,2.71481 -25.60685,15.05012 -30.13109,11.9338 -67.24436,36.30132 -135.89499,70.78028 -210.16266,90.46707 -46.62498,8.56537 -76.20279,44.73826 -105.11605,78.57797 -39.64102,44.88652 -83.72104,91.16362 -141.30297,110.94078 26.25145,-8.40376 -46.17603,10.34529 -1.10873,-6.99753 71.02486,-34.91079 123.87338,-95.5975 169.60643,-158.46557 12.94226,-12.56618 31.17197,-31.4818 22.00601,-29.9692 37.01997,-10.75747 94.98505,-18.79135 138.16016,-35.49625 43.82252,-14.31954 97.82281,-36.6652 90.74728,-92.56687 -4.89622,-15.46896 -3.50612,-22.90886 2.19293,-39.57122 -9.7364,-19.41448 -62.68382,37.9607 -91.41115,42.24397 -60.55802,28.2214 -125.85367,43.05547 -190.86127,56.48007 -40.18056,24.66458 -51.79845,76.38521 -76.34789,114.34183 -29.24226,54.15404 -77.51608,93.25303 -116.31373,139.68381 -34.0721,40.08071 -7.85931,85.73057 6.76082,126.69198 33.90843,107.8862 37.58251,222.30825 29.30165,334.25657 2.36478,16.4546 -6.80725,50.0122 -12.61904,15.2757 -19.67717,48.3635 -58.84184,88.5047 -63.663801,142.5008 -22.554644,26.5613 -6.909366,-52.6575 3.796272,-61.6562 27.450399,-44.6958 57.220959,-89.0149 64.891479,-142.3188 13.40855,-84.8937 -3.91561,-171.04226 -20.08387,-254.36692 -4.89894,-45.19182 -45.961641,-86.09076 -28.114615,-131.91419 17.427615,-35.903 37.974885,-73.60781 28.290395,-114.97612 -2.54636,-67.19472 -27.006004,-135.88496 -3.03057,-201.93482 14.29896,-68.18244 15.08738,-138.7297 33.39678,-206.07798 6.00902,-26.6137 -10.85881,-120.492175 36.221,-97.281934 41.86911,34.189936 14.47592,93.347334 20.05649,139.507934 0.82612,104.18568 -12.37106,209.66783 6.81372,312.78883 4.82476,-2.46597 19.56902,-28.40614 8.92536,-10.50763 9.68721,0.84348 30.33142,-56.79206 42.91994,-76.7086 33.9942,-52.64445 106.44946,-39.00596 157.53929,-62.73105 54.39589,-14.67907 102.85476,-43.43279 150.07405,-72.91013 43.72368,-12.29097 13.36199,62.75282 15.51525,87.60864 -1.66039,36.35976 92.70997,-51.70095 74.13936,12.06888 20.49787,41.86109 -19.66252,85.90491 -57.37296,98.40476 -53.3809,18.51168 -96.11943,59.06939 -148.01068,80.74613 36.72446,18.24745 89.36809,13.62106 127.02945,40.14256 31.79065,21.10224 72.0638,10.75448 103.10545,26.11795 -6.00184,46.72078 -67.86236,69.97125 -111.20345,55.44361 -47.1498,-6.4709 -94.27506,-19.87431 -141.98702,-17.81919 -36.78328,34.67526 -71.03814,72.49385 -103.13285,111.27479 -21.92484,58.71814 48.72139,71.68166 89.31726,82.55933 38.41594,9.94609 84.13402,34.33046 50.1945,74.55759 -3.60124,39.67275 2.32537,2.42306 6.29979,-10.0189 -12.83402,77.25618 -37.06469,156.42946 -93.0311,213.64576 -41.04767,54.7502 -58.13905,123.2003 -95.508,179.883 z M 180.14295,559.9103 c 40.73396,-31.0302 26.83596,-80.44488 18.80651,-122.79809 -8.02543,-62.73403 2.50394,-126.26901 0.39799,-189.41627 -0.57773,-54.43907 3.19008,-109.40372 -1.37921,-163.48811 -5.61888,-29.213986 -36.59397,-49.212259 -31.02294,-6.172684 0.98356,73.336984 -26.11113,143.068114 -28.20145,216.057034 -5.76764,57.73854 -31.20012,115.03274 -15.34912,173.2686 8.66531,47.37961 8.77396,96.50801 6.49986,143.82883 16.59847,-17.16724 33.96734,-33.72417 50.24836,-51.27931 z"
       id="path32995" /><path
       fill="#ffffff"
       d="m 209.41664,511.81535 c -3.61439,17.61301 -17.35746,35.36067 -29.27369,48.09495 q -19.77061,21.10286 -40.61606,41.13496 c -3.12431,2.99768 -5.82018,8.31072 -9.6323,10.14435 q -0.46444,0.22022 -0.52154,-0.29207 -0.4584,-4.13951 -0.27184,-6.07192 4.83118,-48.91889 -0.53652,-97.75856 -3.25876,-29.67122 -9.32459,-66.04262 -2.21416,-13.29734 -1.3363,-27.56666 c 0.49111,-7.97662 3.07163,-17.40905 4.39259,-26.23476 2.81388,-18.923 7.49995,-37.46769 10.43743,-56.39568 1.28143,-8.24156 3.1897,-16.10791 4.10423,-24.59923 0.4374,-4.07616 1.46764,-8.49909 1.9058,-12.13593 q 2.77502,-23.31248 3.75841,-46.75167 0.24229,-5.84266 1.39574,-11.30218 6.70122,-31.69966 13.0675,-63.45861 c 1.63189,-8.15861 2.75755,-18.45468 4.73988,-27.61294 0.35486,-1.61151 0.22994,-3.86388 0.50795,-5.69561 q 4.50355,-30.46037 4.73197,-61.236024 c 0.009,-2.357311 -0.8418,-7.262574 -0.1426,-10.926947 q 0.5237,-2.720337 0.71007,-4.897897 0.68785,-8.334102 7.26848,-13.32095 0.82228,-0.615759 1.56237,0.09955 c 5.48027,5.334901 8.91692,10.133343 12.59617,17.453698 q 4.47183,8.914667 9.02845,17.765228 c 2.60512,5.065038 2.02349,12.542858 2.0282,18.671682 q 0.14399,89.11854 -1.04955,178.23526 -0.75195,56.52652 -3.66059,112.96291 -0.82666,16.13873 2.6943,37.21388 3.90119,23.27839 7.39004,46.62439 c 1.58968,10.69619 6.21084,23.36962 4.046,33.8994 z"
       id="path32999"
       style="fill:#abcbf2;fill-opacity:1" /><path
       fill="#ffffff"
       d="m 290.1922,1314.2196 c -72.57037,-15.0606 -145.14073,-30.1212 -217.7111,-45.1818 9.356824,-32.3062 17.698868,-70.0587 40.4399,-98.209 14.4235,-11.7837 24.55125,-75.8843 35.20333,-35.6734 7.12961,-39.6324 4.84452,-80.9815 8.18724,-121.297 1.08342,-102.13923 -14.03614,-206.42897 -54.03397,-300.45786 -12.498509,-38.54727 14.34506,-77.18852 41.8906,-102.33032 51.91553,-46.99078 90.80456,-105.92153 120.66069,-168.88219 15.49729,-38.46536 48.38656,-64.409 91.09294,-63.90348 82.51274,-16.48397 162.4792,-48.36597 231.266,-96.86738 17.62576,3.25966 -9.20517,28.38747 -0.24983,38.61742 8.48987,33.29645 -10.06467,76.98498 -48.42129,85.28438 -56.37084,28.70238 -120.3862,36.65083 -180.23061,52.83737 19.21932,-4.56372 -8.48624,4.05027 3.54789,6.77223 -44.42084,39.39311 -71.93178,94.52875 -119.34256,131.29169 -19.6904,22.40723 -78.49973,48.25339 -83.07085,57.6318 4.48048,0.55585 30.55228,-8.68982 10.29935,-0.75558 83.52507,-29.26657 132.31604,-107.97282 193.39817,-166.53822 61.14382,-33.20299 132.72926,-41.76567 193.13558,-77.27242 15.14676,-7.71026 79.4323,-42.18897 68.06125,-34.14401 10.09826,-9.23604 53.09689,-26.35844 33.72695,2.44436 17.13332,37.78235 -18.44804,83.49457 -55.25176,92.18749 -46.37852,10.03144 -86.48143,38.50199 -125.29885,64.22767 -17.34725,19.94947 -38.35784,24.9587 -61.20848,16.56419 -53.69237,-5.76236 -74.20319,49.78569 -109.92521,77.52833 -28.68742,26.24171 -63.65097,46.96102 -98.6249,61.27357 50.98005,2.28765 85.84552,-44.35434 120.33845,-75.70621 25.5328,-43.54198 72.72846,-67.22664 120.69171,-44.96366 45.2663,10.92034 92.43184,13.13743 134.14452,34.98645 31.73458,13.3386 66.00819,20.49125 100.24165,21.02981 4.57756,30.76264 -35.65076,54.52929 -65.30306,53.20471 -9.10258,2.05367 -31.10732,-2.85395 -25.64768,-0.38403 -52.36837,-10.60095 -107.0145,-22.95386 -160.01059,-22.62643 -17.65777,16.15309 -49.5343,58.36091 -74.08156,82.25353 -16.42389,17.87701 -39.33949,39.09679 -53.55679,53.4514 37.47144,-31.94328 11.72665,35.88124 19.6899,53.96565 6.95156,53.70468 30.41737,104.43613 34.62498,158.50634 6.77109,-43.67717 -13.72342,-86.69436 -17.25111,-129.95783 -9.52312,-43.38802 69.59539,5.04891 52.79661,-4.34353 24.54425,15.94397 86.27025,15.19996 78.75926,56.56409 -8.67266,40.91677 -12.56583,84.89397 -35.09634,121.92517 -22.81152,40.0696 -51.70322,78.8122 -86.985,107.7699 -0.10044,9.1157 31.63611,-19.4717 11.01662,8.2035 -22.59388,45.8752 -50.31725,89.9066 -67.61779,138.7427 -4.22491,3.2144 -3.84881,7.869 -4.29426,12.2306 z M 454.92337,547.86476 c -3.25354,2.7519 1.70172,0.48879 0,0 z m -14.75341,106.44669 c -5.04099,-2.45386 -4.62048,1.14025 0,0 z m -337.71371,55.17666 c 1.37972,9.56694 6.56237,16.48382 0,0 z m 79.82234,128.17084 c 11.97714,6.18174 -24.19474,-54.87822 -21.04625,-75.94312 1.21106,-15.8431 1.12317,-44.43758 -5.35453,-11.4733 -4.35592,31.26179 13.11889,60.45726 26.40078,87.41642 z M 107.53682,725.90989 c -0.35543,-5.10051 -2.00684,-2.87495 0,0 z m 200.75541,66.20502 c -3.32517,0.17323 -5.20148,2.10918 0,0 z m 3.30392,371.13439 c -12.58224,13.2701 -70.8592,71.0455 -23.37135,31.5872 33.41158,-30.1452 63.80673,-64.8972 88.50243,-102.2671 -26.21024,19.9546 -52.03591,58.2818 -86.95695,74.4471 -11.78691,9.9337 -83.98239,34.8268 -30.42917,21.1808 18.74094,-4.6084 36.24018,-18.4881 52.25504,-24.948 z m -164.1786,-25.2788 c 3.87618,0.016 -1.67052,-2.7926 0,0 z m -69.102183,114.0273 c 3.548213,-14.3039 2.297839,-14.6479 0,0 z m 211.693143,58.3334 c -2.70531,-1.7517 -2.51814,7.7323 -0.36393,0.8064 z"
       id="path33007"
       style="fill:#abcbf2;fill-opacity:1" /><path
       fill="#000000"
       d="m 454.92337,547.86476 a 0.25,0.25 0 0 1 0.30908,0.38075 l -0.98799,1.02053 q -0.59467,0.60171 -0.29873,-0.18455 0.29798,-0.79606 0.97764,-1.21673 z"
       id="path33009" /><ellipse
       fill="#000000"
       cx="519.07666"
       cy="591.94952"
       transform="rotate(7.42423)"
       rx="1.95"
       ry="0.44"
       id="ellipse33011" /><rect
       fill="#000000"
       x="-133.18529"
       y="704.21979"
       transform="rotate(-18.87577)"
       width="0.60000002"
       height="11.52"
       rx="0.25999999"
       id="rect33013" /><path
       fill="#000000"
       d="m 182.27859,837.65895 c -9.92666,-18.3091 -19.85041,-39.19128 -25.10129,-59.70627 q -5.58639,-21.85104 3.37695,-44.71673 a 0.84,0.83 57.72423 0 1 1.60948,0.36466 q -0.74009,10.94802 -1.01388,22.50347 c -0.37147,15.02804 4.14995,29.55998 9.69667,43.33446 q 8.6156,21.42775 16.7882,43.36614 0.95811,2.56827 -1.27803,0.99097 c -1.60395,-1.12949 -3.15695,-4.42378 -4.0781,-6.1367 z"
       id="path33015" /><path
       fill="#000000"
       d="m 107.53682,725.90989 -1.06232,-2.80437 a 0.22327534,0.22327534 0 0 1 0.41309,-0.1696 q 0.58196,1.42805 0.78871,2.94164 0.078,0.60854 -0.13948,0.0323 z"
       id="path33017" /><path
       fill="#000000"
       d="m 305.16326,792.77282 3.12897,-0.65791 q 0.39479,-0.0815 0.0927,0.19287 -1.39571,1.26273 -3.23206,0.81014 a 0.18,0.18 0 0 1 0.0103,-0.3451 z"
       id="path33019" /><path
       fill="#000000"
       d="m 311.2322,1162.5916 c -6.48785,2.0227 -11.51035,7.0406 -17.53926,10.0719 -16.1903,9.4031 -33.81519,16.886 -52.35859,19.956 -2.94657,1.053 -6.81762,-0.094 -2.16985,-1.9565 38.20651,-13.537 73.85256,-35.0345 102.62176,-63.6919 11.04702,-11.0267 20.56297,-23.4665 31.32692,-34.7375 7.10322,-2.9381 1.00771,7.8903 -2.00212,10.3225 -20.50485,25.6727 -40.88609,51.5908 -64.00205,74.9967 -12.20278,12.019 -25.36261,23.021 -38.85265,33.5583 -3.53187,-2.6635 4.9228,-7.6383 7.13325,-10.6601 12.33084,-12.263 24.71721,-24.6049 36.30889,-37.511 l -0.15575,-0.2815 z"
       id="path33021" /><path
       fill="#000000"
       d="m 147.41755,1137.9705 -0.3427,-0.6124 a 0.39,0.38 81.92423 0 1 0.42379,-0.5657 l 1.04158,0.2468 a 0.31,0.31 0 0 1 0.0881,0.5596 l -0.76446,0.4848 a 0.32,0.32 0 0 1 -0.44634,-0.1131 z"
       id="path33023" /><path
       fill="#000000"
       d="m 80.753415,1240.2992 c -0.318616,4.1927 -1.514768,7.6927 -2.438048,11.6986 q 0,0 0,0 0,0 0,0 1.085087,-5.7698 2.160383,-11.5418 0.03454,-0.1664 0.146682,-0.2146 0.03344,-0.014 0.07464,-0.015 0.06281,-0.01 0.05635,0.073 z"
       id="path33025" /><path
       fill="#000000"
       d="m 290.00851,1310.3312 -1.36132,3.0163 a 0.42,0.41 25.42423 0 1 -0.57214,0.1979 q -0.11916,-0.066 -0.24811,-0.1332 a 0.34,0.35 27.72423 0 1 -0.14559,-0.4796 q 0.87751,-1.4724 1.83297,-2.8776 a 0.2830681,0.2830681 0 0 1 0.49419,0.2762 z"
       id="path33027" /><path
       fill="#000000"
       d="m 63.028151,1265.2275 c -0.104927,0.4071 -0.04913,0.8272 -0.167174,1.15 a 0.44,0.44 0 0 1 -0.833561,-0.2649 l 0.559738,-2.0082 q 0.271741,-0.9649 0.466659,0.015 0.127296,0.5677 -0.02566,1.1079 z"
       id="path33029" /><path
       id="rect47493"
       style="fill:#c484b0"
       d="m 418.53356,811.45074 h 46.88434 c 0.14404,0 0.26,0.11596 0.26,0.26 v 2.2685 c 0,0.14404 -0.11596,0.26 -0.26,0.26 h -46.88434 c -0.14404,0 -0.26,-0.11596 -0.26,-0.26 v -2.2685 c 0,-0.14404 0.11596,-0.26 0.26,-0.26 z" /><path
       id="rect47624"
       style="fill:#f5c7c0;fill-opacity:0.968627;stroke:#000000;stroke-width:6.56666"
       d="m 541.03574,79.69036 h 13.71028 a 33.885094,33.885094 45 0 1 33.88509,33.88509 v 85.20235 a 37.382402,37.382402 135 0 1 -37.3824,37.3824 l -8.46432,0 a 37.382402,37.382402 45 0 1 -37.3824,-37.3824 l 0,-83.45369 a 35.633748,35.633748 135 0 1 35.63375,-35.63375 z"
       inkscape:path-effect="#path-effect48353"
       inkscape:original-d="m 505.40199,79.69036 h 83.22912 V 236.1602 h -83.22912 z" /><circle
       style="fill:#000000;fill-opacity:1;stroke:none;stroke-width:7.4;stroke-dasharray:none;stroke-opacity:1"
       id="path48407"
       cx="548.16095"
       cy="130.46002"
       r="30" /><circle
       style="fill:#ffffff;fill-opacity:1;stroke:none;stroke-width:2.19225;stroke-dasharray:none;stroke-opacity:1"
       id="path48407-6"
       cx="557.84308"
       cy="134.77234"
       r="8.8874941" /></g></svg>
