<?xml version="1.0" encoding="UTF-8" standalone="no"?>
<svg
   version="1.1"
   viewBox="0 0 700 700"
   id="svg33031"
   sodipodi:docname="logo-icon.svg"
   xml:space="preserve"
   inkscape:version="1.2.2 (b0a84865, 2022-12-01)"
   width="700"
   height="700"
   xmlns:inkscape="http://www.inkscape.org/namespaces/inkscape"
   xmlns:sodipodi="http://sodipodi.sourceforge.net/DTD/sodipodi-0.dtd"
   xmlns:xlink="http://www.w3.org/1999/xlink"
   xmlns="http://www.w3.org/2000/svg"
   xmlns:svg="http://www.w3.org/2000/svg"><defs
     id="defs33035"><linearGradient
       inkscape:collect="always"
       id="linearGradient55819"><stop
         style="stop-color:#f4689f;stop-opacity:0.99215686"
         offset="0"
         id="stop55815" /><stop
         style="stop-color:#cc70c6;stop-opacity:1;"
         offset="0.4178082"
         id="stop55817" /></linearGradient><inkscape:path-effect
       effect="fillet_chamfer"
       id="path-effect48353"
       is_visible="true"
       lpeversion="1"
       nodesatellites_param="F,0,0,1,0,35.633748,0,1 @ F,0,0,1,0,33.885094,0,1 @ F,0,0,1,0,37.382402,0,1 @ F,0,0,1,0,37.382402,0,1"
       unit="px"
       method="auto"
       mode="F"
       radius="47"
       chamfer_steps="1"
       flexible="false"
       use_knot_distance="true"
       apply_no_radius="true"
       apply_with_radius="true"
       only_selected="false"
       hide_knots="false" /><inkscape:path-effect
       effect="fillet_chamfer"
       id="path-effect47622"
       is_visible="true"
       lpeversion="1"
       nodesatellites_param="F,0,0,1,0,60,0,1 @ F,0,0,1,0,60,0,1 @ F,0,0,1,0,60,0,1 @ F,0,0,1,0,60,0,1"
       unit="px"
       method="auto"
       mode="F"
       radius="60"
       chamfer_steps="1"
       flexible="false"
       use_knot_distance="true"
       apply_no_radius="true"
       apply_with_radius="true"
       only_selected="false"
       hide_knots="false" /><inkscape:path-effect
       effect="fillet_chamfer"
       id="path-effect47545"
       is_visible="true"
       lpeversion="1"
       nodesatellites_param="F,0,0,1,0,94,0,1 @ F,0,0,1,0,94,0,1 @ F,0,0,1,0,94,0,1 @ F,0,0,1,0,94,0,1 @ F,0,0,1,0,94,0,1"
       unit="px"
       method="auto"
       mode="F"
       radius="94"
       chamfer_steps="1"
       flexible="false"
       use_knot_distance="true"
       apply_no_radius="true"
       apply_with_radius="true"
       only_selected="false"
       hide_knots="false" /><inkscape:path-effect
       effect="fillet_chamfer"
       id="path-effect47497"
       is_visible="true"
       lpeversion="1"
       nodesatellites_param="C,0,0,1,0,63,0,1 @ C,0,0,1,0,63,0,1 @ C,0,0,1,0,63,0,1 @ C,0,0,1,0,63,0,1 @ C,0,0,1,0,63,0,1 @ C,0,0,1,0,63,0,1 @ C,0,0,1,0,63,0,1 @ C,0,0,1,0,63,0,1"
       unit="px"
       method="auto"
       mode="C"
       radius="63"
       chamfer_steps="1"
       flexible="false"
       use_knot_distance="true"
       apply_no_radius="true"
       apply_with_radius="true"
       only_selected="false"
       hide_knots="false" /><linearGradient
       inkscape:collect="always"
       xlink:href="#linearGradient55819"
       id="linearGradient55821"
       x1="336.88513"
       y1="54.611"
       x2="556.27087"
       y2="795.40216"
       gradientUnits="userSpaceOnUse"
       gradientTransform="matrix(0.8243582,-0.0744804,0.07866677,0.78048877,-18.234279,25.194847)" /></defs><sodipodi:namedview
     id="namedview33033"
     pagecolor="#9a9a9a"
     bordercolor="#666666"
     borderopacity="1.0"
     inkscape:showpageshadow="2"
     inkscape:pageopacity="0"
     inkscape:pagecheckerboard="0"
     inkscape:deskcolor="#d1d1d1"
     showgrid="false"
     inkscape:zoom="1.0580062"
     inkscape:cx="327.9754"
     inkscape:cy="311.43485"
     inkscape:window-width="1552"
     inkscape:window-height="1037"
     inkscape:window-x="199"
     inkscape:window-y="98"
     inkscape:window-maximized="0"
     inkscape:current-layer="svg33031" /><clipPath
     id="clipping-path-0"><path
       d="M 0,0 H 844 V 1322 H 0 Z"
       id="path32944" /></clipPath><path
     id="rect47578"
     d="M 183.2104,35.878066 470.98779,9.877506 a 49.686191,47.042068 0 0 1 54.18149,42.360502 L 583.05977,626.59586 A 49.686191,47.042068 0 0 1 538.31829,677.894 L 250.5409,703.89457 a 49.686191,47.042068 0 0 1 -54.1815,-42.3605 L 138.46892,87.176219 A 49.686191,47.042068 0 0 1 183.2104,35.878066 Z"
     style="fill:url(#linearGradient55821);fill-opacity:1;stroke:#000000;stroke-width:16.4242;stroke-dasharray:none;stroke-opacity:1" /><path
     id="path32995"
     style="stroke-width:0.805767"
     d="M 132.89509,42.249647 C 92.726852,39.752188 82.971204,80.380514 87.400566,107.14623 c 1.07104,37.44311 -6.982613,66.68867 -0.32497,104.30347 9.216388,34.5122 8.424417,87.70496 4.530282,122.35817 1.052555,51.12701 30.936812,93.53954 34.145712,144.24007 0.163,34.96366 -31.927932,66.4917 -15.46579,101.57209 12.25678,26.91257 30.36141,51.27919 35.98657,80.94332 9.15901,20.50054 9.38263,51.5692 26.37988,65.03726 14.41617,-30.30967 -5.32096,-62.16125 -14.11871,-91.17689 -9.79882,-33.44275 -42.7643,-63.87863 -31.24517,-100.94313 27.28287,-46.48967 71.5504,-81.89765 93.04035,-132.33124 16.89835,-30.20664 21.08884,-72.59304 53.50918,-91.02192 60.57073,-17.74209 121.82754,-37.84749 175.04675,-72.27796 13.80088,-12.51012 38.54333,-34.88612 36.86483,-0.21327 11.53622,31.61854 -20.22921,55.80581 -45.77829,66.46673 -40.85034,20.70686 -85.83202,30.36082 -128.62681,45.88041 -4.89558,4.56621 -19.48534,12.32869 -4.19311,10.95167 -30.10114,35.23483 -51.03574,77.94377 -85.91711,109.35563 -19.41166,19.58695 -42.35142,35.23694 -66.31681,48.54017 3.32397,26.69041 46.74034,-3.73985 60.92945,-14.68797 44.06957,-32.49334 70.27129,-81.99963 108.24774,-120.27249 27.24743,-24.53891 65.89465,-27.7914 96.92626,-46.00815 42.20855,-20.18226 82.03304,-45.43828 121.72417,-69.64307 23.08021,18.10186 -0.008,67.77609 -28.83551,71.89044 -44.25323,15.50622 -81.66199,44.79504 -116.38956,75.44526 -29.39998,3.96259 -63.77684,0.47796 -82.82929,29.80498 -27.99249,32.32763 -53.23025,69.88856 -94.11691,87.09096 -24.54587,3.49591 -22.67457,32.81891 4.31657,19.37434 50.83473,-18.92869 76.24724,-70.07495 113.12108,-105.86995 31.44297,-17.72081 66.86777,2.75674 100.34518,-0.2204 35.12462,0.66959 68.29895,13.87351 101.74005,21.93648 15.83235,0.24193 65.08164,-9.18249 38.35352,19.57283 -32.73092,25.85791 -76.07742,12.25611 -113.87767,10.67685 -26.66622,0.27035 -59.71229,-7.14323 -82.1022,4.36589 -30.50418,38.91556 -59.916,78.87277 -93.97462,114.76923 -8.53921,18.46607 27.06207,-2.84695 17.00312,21.42245 4.44298,35.31146 15.44727,71.83356 38.50872,99.53612 26.65201,17.72752 -0.47619,-30.49329 -1.33778,-42.41406 -11.5656,-28.42522 -25.07587,-64.38358 -12.77862,-94.07263 25.01883,-28.45463 44.60058,-70.06328 77.82157,-86.40328 44.49286,-3.28681 88.80695,6.33979 133.14368,5.46414 32.18471,-3.09041 70.28302,-27.86961 66.98082,-63.53056 -32.31277,-12.84309 -69.92104,1.3183 -100.39773,-18.4096 -21.44782,-13.60058 -63.82442,-1.34708 -74.78525,-18.90721 33.96326,-23.76355 66.26964,-50.45653 104.53678,-67.17801 26.54003,-15.66318 48.92592,-51.01738 32.20636,-81.24238 4.09025,-44.06045 -41.06292,-10.45985 -60.09332,-7.19316 -9.75842,-20.64891 13.08328,-60.07628 -17.15934,-71.12024 -28.47006,1.93296 -47.37081,30.12877 -72.94522,41.20256 -40.83892,24.69839 -85.93888,41.09702 -132.13719,52.4168 -31.38232,7.66778 -57.99956,31.23794 -65.41493,63.27238 -6.97163,13.89625 -17.45159,62.01134 -20.64732,24.38714 -17.68874,-78.73535 -15.52982,-160.08041 -25.55702,-239.78619 0.44323,-31.28932 2.76663,-72.773239 -29.76879,-89.934877 -4.04853,-1.625142 -8.42893,-2.334812 -12.77906,-2.315786 z m 4.64844,30.838704 c 20.42611,30.506809 12.36168,70.679019 18.81388,105.444779 9.3335,60.14538 3.6118,122.22805 19.35732,181.34706 9.99958,27.60719 19.52251,65.15656 -7.85948,86.39466 -11.26646,11.13491 -30.56984,46.52487 -26.8427,9.51526 -1.09486,-39.15462 -17.33647,-75.48869 -21.92485,-113.83273 -0.61178,-41.63706 9.62991,-82.73296 6.4652,-124.47359 2.28527,-50.4887 11.1899,-100.67608 7.68065,-151.372646 l 2.15499,3.488607 z"
     sodipodi:nodetypes="ccccccccccccccccccccccccccccccccccccccccccccccccccccccccccccccccc" /><path
     id="path32999"
     style="fill:#abcbf2;fill-opacity:1;stroke-width:0.805767"
     d="m 118.34998,52.063367 c -11.21069,9.473177 -18.30139,26.252946 -19.402301,39.333161 1.935011,38.135692 4.647671,76.880712 1.392951,114.708822 4.25591,15.11398 14.53276,30.92688 15.08644,46.58795 0.65093,18.7391 1.73268,32.02903 -1.67679,50.80121 -1.7914,19.21765 -12.76008,45.45115 -5.62973,64.0436 11.51048,40.14016 28.17504,80.54693 27.88745,122.46494 4.6478,4.54315 13.19668,-15.57022 19.71476,-19.22586 15.40218,-18.97905 35.65479,-37.37525 38.9953,-62.88221 -1.91985,-17.38894 -9.48287,-33.76557 -13.06662,-50.93187 -10.65692,-30.46406 -8.05136,-63.04923 -11.22345,-94.67504 -4.66348,-60.30206 -10.34335,-120.5425 -16.76651,-180.673694 -5.96341,-15.788589 -16.92898,-30.073981 -35.3115,-29.551 z"
     sodipodi:nodetypes="cccccccccccccc" /><path
     fill="#ffffff"
     d="m 122.20002,574.37827 c -13.33564,-29.15481 5.75329,-61.31319 26.48285,-82.98768 39.10039,-40.54247 66.52298,-89.43372 86.18222,-140.79751 9.74938,-31.17603 34.82101,-53.87436 70.06613,-56.6606 66.72332,-19.01112 130.13627,-49.8506 183.02578,-92.82868 14.78637,1.23135 -5.35521,22.84171 2.83196,30.15907 9.61801,25.35517 -2.24074,60.83554 -33.20744,70.16995 -44.21185,26.6004 -96.35815,37.57197 -144.41804,54.66262 15.4846,-4.9934 -6.67708,3.79324 3.45749,5.02139 -33.51976,34.05436 -51.86129,79.13614 -88.05273,111.36037 -14.46924,18.95514 -60.91596,43.50792 -63.94644,51.16812 3.73725,0.10015 24.50243,-9.05785 8.43092,-1.35682 66.55227,-29.06321 100.58194,-94.12652 146.32834,-144.38558 47.79244,-30.46858 106.1309,-42.48336 153.13413,-74.69507 11.87982,-7.14591 62.16179,-38.84417 53.42086,-31.71824 7.598,-7.96076 41.69732,-24.52714 27.99537,-0.60421 17.09621,28.21261 -8.63954,66.54059 -38.29515,76.06648 -37.44337,11.28371 -68.26284,36.49154 -98.23855,59.46129 -12.73098,16.86236 -29.65718,22.33688 -49.15465,17.48699 -44.71507,-0.49843 -57.25353,44.38385 -84.51886,68.69726 -21.58435,22.61801 -48.77693,41.3933 -76.48204,55.16895 42.20579,-2.01153 67.27823,-41.01187 93.24642,-68.05069 17.62287,-35.88573 54.66581,-57.88649 95.95605,-44.0828 38.17471,5.15175 77.23043,3.36926 113.3354,17.31539 27.20997,8.04703 56.02638,11.07687 84.28939,8.9475 6.19354,23.66895 -25.09936,45.21477 -49.64767,46.38947 -7.34224,2.28083 -25.86809,0.0894 -21.17309,1.61051 -44.00424,-4.3735 -90.02399,-9.94474 -133.68599,-5.74202 -13.28562,13.92246 -36.24295,49.23938 -54.59912,69.71559 -12.13284,15.17606 -29.35422,33.44463 -39.94514,45.70714 28.37702,-27.72226 12.48962,27.13149 20.47683,40.65307 9.95536,41.39815 33.29047,79.24574 -49.4836,72.03739 C 172.53926,755.92264 162.5695,644.78771 122.20002,574.37827 Z M 399.88428,418.91426 c -2.4656,2.39016 1.44128,0.25475 0,0 z m -3.78828,84.17929 c -4.34862,-1.53975 -3.71923,1.23409 0,0 z m -274.0565,68.21782 c 1.88999,7.36412 6.70648,12.37667 0,0 z m 75.88499,94.0907 c 10.35975,3.93271 -24.26223,-41.02981 -23.32385,-57.70522 -0.24797,-12.45556 -2.56986,-34.76669 -5.31661,-8.55598 -1.13158,24.72392 15.57065,46.20911 28.64046,66.2612 z m -70.40493,-81.65209 c -0.69423,-3.95442 -1.88051,-2.0944 0,0 z m 170.7025,36.71993 c -2.7275,0.38286 -4.12195,2.0336 0,0 z m 25.69407,405.82379 c -2.36794,-1.1657 -1.46757,6.2225 -0.23657,0.6564 z"
     id="path33007"
     style="fill:#abcbf2;fill-opacity:1;stroke-width:0.805767"
     sodipodi:nodetypes="cccccccccccccccccccccccccccccccccccccccccccccccccc" /><path
     fill="#000000"
     d="m 399.88428,418.91426 a 0.2070258,0.19600862 0 0 1 0.28474,0.27416 l -0.73417,0.87009 q -0.44289,0.51392 -0.26077,-0.12179 0.18301,-0.64352 0.7102,-1.02246 z"
     id="path33009"
     style="stroke-width:0.805767" /><ellipse
     fill="#000000"
     cx="412.51608"
     cy="489.91656"
     transform="matrix(0.99946847,0.03260038,-0.03636342,0.99933863,0,0)"
     rx="1.614702"
     ry="0.34499881"
     id="ellipse33011"
     style="stroke-width:0.80577" /><rect
     fill="#000000"
     x="-136.65134"
     y="573.52209"
     transform="matrix(0.91932715,-0.39349408,0.43089124,0.90240387,0,0)"
     width="0.49247497"
     height="9.1202183"
     rx="0.21340582"
     id="rect33013"
     style="stroke-width:0.806107" /><path
     fill="#000000"
     d="m 197.92449,665.40207 c -9.62344,-13.55071 -19.4469,-29.1099 -25.38935,-44.73052 q -6.32415,-16.63841 -0.73391,-35.15243 a 0.69085853,0.65522109 6.3187202 0 1 1.35548,0.16474 q 0.25115,8.59993 0.93447,17.63922 c 0.87599,11.75689 5.74643,22.76214 11.40251,33.09985 q 8.78801,16.08243 17.25097,32.59639 0.99187,1.93315 -0.97561,0.86863 c -1.41107,-0.76209 -2.95046,-3.21758 -3.84456,-4.48588 z"
     id="path33015"
     style="stroke-width:0.805767" /><path
     fill="#000000"
     d="m 127.51956,583.74998 -1.09634,-2.10966 a 0.18489894,0.17505928 0 0 1 0.3272,-0.16314 q 0.59209,1.07123 0.88158,2.23717 0.1122,0.46915 -0.11241,0.0356 z"
     id="path33017"
     style="stroke-width:0.805767" /><path
     fill="#000000"
     d="m 295.69442,621.21644 2.52764,-0.74653 q 0.31904,-0.093 0.0916,0.14363 -1.05124,1.0895 -2.60064,0.87303 a 0.14905856,0.1411262 0 0 1 -0.0187,-0.27012 z"
     id="path33019"
     style="stroke-width:0.805767" /><path
     id="rect47624"
     style="fill:#ffffff;fill-opacity:0.968627;stroke:none;stroke-width:5.29121"
     d="m 434.04195,47.09572 11.30218,-1.021148 a 28.060354,26.567082 0 0 1 30.59908,23.923155 l 6.7026,66.499473 a 30.956486,29.309092 0 0 1 -27.87574,31.96081 l -6.97762,0.63042 A 30.956486,29.309092 0 0 1 414.0352,142.69615 L 407.47017,77.561476 A 29.50842,27.938086 0 0 1 434.04195,47.09572 Z" /><g
     id="g2440"
     transform="matrix(0.71465692,0,0,0.71465692,125.24867,22.608059)"><ellipse
       style="fill:#000000;fill-opacity:1;stroke:none;stroke-width:5.96284;stroke-dasharray:none;stroke-opacity:1"
       id="path48407"
       cx="433.05121"
       cy="125.79151"
       transform="matrix(0.9959433,-0.08998304,0.10028357,0.9949589,0,0)"
       rx="24.83148"
       ry="23.533298" /><ellipse
       style="fill:#ffffff;fill-opacity:1;stroke:none;stroke-width:1.76649;stroke-dasharray:none;stroke-opacity:1"
       id="path48407-6"
       cx="441.06528"
       cy="129.17427"
       transform="matrix(0.9959433,-0.08998304,0.10028357,0.9949589,0,0)"
       rx="7.3563209"
       ry="6.971734" /></g></svg>
